<?xml version="1.0" encoding="UTF-8"?>
<svg id="Layer_1" xmlns="http://www.w3.org/2000/svg" version="1.1" viewBox="0 0 796.42 281.63">
  <!-- Generator: Adobe Illustrator 30.3.0, SVG Export Plug-In . SVG Version: 2.1.3 Build 182)  -->
  <circle cx="140.82" cy="140.82" r="140.82" fill="#155b91"/>
  <path d="M91.78,75.72c-.14,9.1-8.41,17.36-17.36,17.36-7.28,0-12.19-4.97-12.74-5.57-.71-.76-4.79-5.32-4.62-11.79.24-8.95,8.41-17.16,17.36-17.36,5.69-.13,9.9,3.02,11.41,4.28,1.12,1.05,6.06,5.94,5.95,13.09h0Z" fill="#fff"/>
  <circle cx="128.54" cy="110.45" r="17.36" fill="#fff"/>
  <circle cx="191.9" cy="152.32" r="17.36" fill="#fff"/>
  <circle cx="150.01" cy="195.21" r="17.36" fill="#fff"/>
  <circle cx="140.82" cy="41" r="17.36" fill="#fff"/>
  <circle cx="202.12" cy="65.52" r="17.36" fill="#fff"/>
  <circle cx="244.97" cy="117.59" r="17.36" transform="translate(89.66 340.56) rotate(-80.78)" fill="#fff"/>
  <circle cx="44.8" cy="140.82" r="17.36" fill="#fff"/>
  <circle cx="62.16" cy="216.9" r="17.36" fill="#fff"/>
  <path d="M352.45,95.32h13.32v25.56c-6.93,5.22-16.47,8.01-25.47,8.01-19.8,0-34.38-13.59-34.38-32.58s14.58-32.58,34.65-32.58c11.07,0,20.25,3.78,26.37,10.89l-9.36,8.64c-4.59-4.86-9.9-7.11-16.29-7.11-12.24,0-20.61,8.19-20.61,20.16s8.37,20.16,20.43,20.16c3.96,0,7.65-.72,11.34-2.7v-18.45h0Z" fill="#1e2f5f"/>
  <path d="M427.51,79.39v48.42h-13.32v-5.76c-3.69,4.23-9.09,6.48-15.03,6.48-12.15,0-20.7-6.84-20.7-21.78v-27.36h14.04v25.29c0,8.1,3.6,11.7,9.81,11.7s11.16-4.14,11.16-13.05v-23.94s14.04,0,14.04,0Z" fill="#1e2f5f"/>
  <path d="M441.01,61.03h14.04v66.78h-14.04V61.03Z" fill="#1e2f5f"/>
  <path d="M483.94,80.47h12.42v10.8h-12.06v36.54h-14.04v-36.54h-7.47v-10.8h7.47v-2.16c0-10.89,6.66-18,18.72-18,3.96,0,8.1.81,10.71,2.61l-3.69,10.17c-1.53-1.08-3.51-1.71-5.67-1.71-4.14,0-6.39,2.25-6.39,7.02v2.07h0Z" fill="#1e2f5f"/>
  <path d="M526.78,96.31c0-18.99,14.58-32.58,34.2-32.58,10.89,0,19.98,3.96,25.92,11.16l-9.36,8.64c-4.23-4.86-9.54-7.38-15.84-7.38-11.79,0-20.16,8.28-20.16,20.16s8.37,20.16,20.16,20.16c6.3,0,11.61-2.52,15.84-7.47l9.36,8.64c-5.94,7.29-15.03,11.25-26.01,11.25-19.53,0-34.11-13.59-34.11-32.58Z" fill="#1e2f5f"/>
  <path d="M590.86,103.6c0-14.58,11.25-24.93,26.64-24.93s26.55,10.35,26.55,24.93-11.16,24.93-26.55,24.93-26.64-10.35-26.64-24.93ZM629.83,103.6c0-8.37-5.31-13.41-12.33-13.41s-12.42,5.04-12.42,13.41,5.4,13.41,12.42,13.41,12.33-5.04,12.33-13.41Z" fill="#1e2f5f"/>
  <path d="M695.89,100.18v27.63h-13.14v-6.03c-2.61,4.41-7.65,6.75-14.76,6.75-11.34,0-18.09-6.3-18.09-14.67s6.03-14.49,20.79-14.49h11.16c0-6.03-3.6-9.54-11.16-9.54-5.13,0-10.44,1.71-13.95,4.5l-5.04-9.81c5.31-3.78,13.14-5.85,20.88-5.85,14.76,0,23.31,6.84,23.31,21.51h0ZM681.85,112.51v-4.95h-9.63c-6.57,0-8.64,2.43-8.64,5.67,0,3.51,2.97,5.85,7.92,5.85,4.68,0,8.73-2.16,10.35-6.57h0Z" fill="#1e2f5f"/>
  <path d="M704.35,123.31l4.68-10.08c4.32,2.79,10.89,4.68,16.83,4.68,6.48,0,8.91-1.71,8.91-4.41,0-7.92-29.25.18-29.25-19.17,0-9.18,8.28-15.66,22.41-15.66,6.66,0,14.04,1.53,18.63,4.23l-4.68,9.99c-4.77-2.7-9.54-3.6-13.95-3.6-6.3,0-9,1.98-9,4.5,0,8.28,29.25.27,29.25,19.35,0,9-8.37,15.39-22.86,15.39-8.19,0-16.47-2.25-20.97-5.22Z" fill="#1e2f5f"/>
  <path d="M788.5,125.47c-2.88,2.07-7.11,3.06-11.43,3.06-11.43,0-18.09-5.85-18.09-17.37v-19.89h-7.47v-10.8h7.47v-11.79h14.04v11.79h12.06v10.8h-12.06v19.71c0,4.14,2.25,6.39,6.03,6.39,2.07,0,4.14-.63,5.67-1.8,0,0,3.78,9.9,3.78,9.9Z" fill="#1e2f5f"/>
  <path d="M330.44,185.73v3.48h-20.32v-28h19.76v3.48h-15.76v8.6h14.04v3.4h-14.04v9.04h16.32Z" fill="#2ec4b6"/>
  <path d="M368.04,161.22l-12.28,28h-3.96l-12.32-28h4.32l10.08,23,10.16-23h4Z" fill="#2ec4b6"/>
  <path d="M399.12,185.73v3.48h-20.32v-28h19.76v3.48h-15.76v8.6h14.04v3.4h-14.04v9.04h16.32Z" fill="#2ec4b6"/>
  <path d="M436.88,161.22v28h-3.28l-16.8-20.88v20.88h-4v-28h3.28l16.8,20.88v-20.88h4Z" fill="#2ec4b6"/>
  <path d="M458.04,164.7h-9.6v-3.48h23.16v3.48h-9.6v24.52h-3.96v-24.52Z" fill="#2ec4b6"/>
  <path d="M525.2,161.22v28h-4v-12.48h-16.08v12.48h-4v-28h4v12.04h16.08v-12.04h4Z" fill="#2ec4b6"/>
  <path d="M540.56,177.13v-15.92h4v15.76c0,6.2,2.84,9,7.88,9s7.92-2.8,7.92-9v-15.76h3.88v15.92c0,8.12-4.44,12.4-11.84,12.4s-11.84-4.28-11.84-12.4h0Z" fill="#2ec4b6"/>
  <path d="M603.72,181.65c0,4.8-3.64,7.56-10.72,7.56h-13.36v-28h12.56c6.44,0,10.04,2.72,10.04,7.24,0,3.04-1.56,5.16-3.76,6.24,3.16.88,5.24,3.24,5.24,6.96h0ZM583.64,164.46v8.96h8.2c4.08,0,6.4-1.52,6.4-4.48s-2.32-4.48-6.4-4.48h-8.2ZM599.68,181.33c0-3.24-2.4-4.68-6.84-4.68h-9.2v9.32h9.2c4.44,0,6.84-1.4,6.84-4.64Z" fill="#2ec4b6"/>
  <path d="M48.81,126.65c1.69-5.9,4.53-14.44,9.18-24,3.47-7.13,6.93-12.73,9.7-16.8" fill="none" stroke="#fff" stroke-miterlimit="10" stroke-width="8"/>
  <path d="M79.9,66.28c5.63-4.78,13.14-10.31,22.62-15.36,9.06-4.83,17.47-7.91,24.36-9.92" fill="none" stroke="#fff" stroke-miterlimit="10" stroke-width="8"/>
  <line x1="61.14" y1="134.96" x2="118.2" y2="115.75" fill="none" stroke="#fff" stroke-miterlimit="10" stroke-width="8"/>
  <line x1="128.54" y1="96.91" x2="140.82" y2="50.7" fill="none" stroke="#fff" stroke-miterlimit="10" stroke-width="8"/>
  <polyline points="140.82 120.32 179.61 143.81 180.35 165.28 162.45 183.11" fill="none" stroke="#fff" stroke-miterlimit="10" stroke-width="8"/>
  <line x1="203.78" y1="144.49" x2="233.57" y2="124.34" fill="none" stroke="#fff" stroke-miterlimit="10" stroke-width="8"/>
  <path d="M244.97,108.06c-4.18-6.57-9.41-13.86-15.86-21.28-7.84-9.01-15.54-15.97-22.27-21.28" fill="none" stroke="#fff" stroke-miterlimit="10" stroke-width="8"/>
  <path d="M153.05,41c11.05,2.29,24.65,6.24,38.4,13.29,3.92,2.01,7.46,4.07,10.65,6.12" fill="none" stroke="#fff" stroke-miterlimit="10" stroke-width="8"/>
  <line x1="55.15" y1="149" x2="136.48" y2="195.21" fill="none" stroke="#fff" stroke-miterlimit="10" stroke-width="8"/>
  <path d="M44.8,156.66c.8,7.66,2.11,16.3,4.24,25.64,1.82,8,3.94,15.2,6.11,21.55" fill="none" stroke="#fff" stroke-miterlimit="10" stroke-width="8"/>
  <path d="M76.71,216.9c10.81.05,24.67-1.01,40.17-5.15,8.51-2.27,16-5.07,22.4-7.9" fill="none" stroke="#fff" stroke-miterlimit="10" stroke-width="8"/>
  <path d="M788.33,176.3s.08.12.08.2c.1,2.25-25.6,6.77-50.27,7.47-18.03.51-32.34-1.11-37.11-1.7-11.07-1.37-11.29-2.18-34.75-5.81-23.22-3.59-27.87-3.54-33.07-2.82-7.16,1-19.34,3.85-19.56,2.86-.02-.07.04-.15.08-.2-.03-.05-.07-.12-.08-.2-.36-2.62,23.35-11.76,47.37-12.85,5.49-.25,15.44.81,35.33,2.91,9.34.99,17.44,1.86,28.2,3.57,16.38,2.61,19.07,4.01,29.62,5.44,8,1.08,19.64,2.07,34.16,1.13h0Z" fill="#2ec4b6"/>
</svg>